<mxfile host="app.diagrams.net" modified="2022-11-22T16:19:59.490Z" agent="5.0 (Windows NT 10.0; WOW64) AppleWebKit/537.36 (KHTML, like Gecko) Chrome/107.0.0.0 Safari/537.36" etag="34BOwB6bpFHREZze9mlV" version="20.5.3" type="github" pages="3">
  <diagram id="Q2oTnS6dzI95HrH7bnxC" name="Page-1">
    <mxGraphModel dx="2466" dy="935" grid="1" gridSize="10" guides="1" tooltips="1" connect="1" arrows="1" fold="1" page="1" pageScale="1" pageWidth="850" pageHeight="1100" math="0" shadow="0">
      <root>
        <mxCell id="0" />
        <mxCell id="1" parent="0" />
        <mxCell id="6Tn6oWBFMekzkGPFEn6Q-31" value="" style="rounded=0;whiteSpace=wrap;html=1;shadow=1;fillColor=#f8cecc;strokeColor=#b85450;" vertex="1" parent="1">
          <mxGeometry x="560" y="80" width="220" height="520" as="geometry" />
        </mxCell>
        <mxCell id="6Tn6oWBFMekzkGPFEn6Q-19" value="" style="whiteSpace=wrap;html=1;aspect=fixed;shadow=1;fillColor=#d5e8d4;strokeColor=#82b366;" vertex="1" parent="1">
          <mxGeometry y="80" width="520" height="520" as="geometry" />
        </mxCell>
        <mxCell id="6Tn6oWBFMekzkGPFEn6Q-13" style="edgeStyle=orthogonalEdgeStyle;rounded=0;orthogonalLoop=1;jettySize=auto;html=1;exitX=1;exitY=0.5;exitDx=0;exitDy=0;entryX=0;entryY=0.5;entryDx=0;entryDy=0;" edge="1" parent="1" source="6Tn6oWBFMekzkGPFEn6Q-1" target="6Tn6oWBFMekzkGPFEn6Q-7">
          <mxGeometry relative="1" as="geometry" />
        </mxCell>
        <mxCell id="6Tn6oWBFMekzkGPFEn6Q-14" style="edgeStyle=orthogonalEdgeStyle;rounded=0;orthogonalLoop=1;jettySize=auto;html=1;exitX=1;exitY=0.5;exitDx=0;exitDy=0;entryX=0;entryY=0.5;entryDx=0;entryDy=0;" edge="1" parent="1" source="6Tn6oWBFMekzkGPFEn6Q-1" target="6Tn6oWBFMekzkGPFEn6Q-8">
          <mxGeometry relative="1" as="geometry" />
        </mxCell>
        <mxCell id="6Tn6oWBFMekzkGPFEn6Q-1" value="Project &quot;Alpha&quot;" style="rounded=0;whiteSpace=wrap;html=1;" vertex="1" parent="1">
          <mxGeometry x="-290" y="320" width="120" height="60" as="geometry" />
        </mxCell>
        <mxCell id="6Tn6oWBFMekzkGPFEn6Q-4" value="" style="edgeStyle=orthogonalEdgeStyle;rounded=0;orthogonalLoop=1;jettySize=auto;html=1;" edge="1" parent="1" source="6Tn6oWBFMekzkGPFEn6Q-2" target="6Tn6oWBFMekzkGPFEn6Q-3">
          <mxGeometry relative="1" as="geometry" />
        </mxCell>
        <mxCell id="6Tn6oWBFMekzkGPFEn6Q-5" value="" style="edgeStyle=orthogonalEdgeStyle;rounded=0;orthogonalLoop=1;jettySize=auto;html=1;" edge="1" parent="1" source="6Tn6oWBFMekzkGPFEn6Q-2" target="6Tn6oWBFMekzkGPFEn6Q-3">
          <mxGeometry relative="1" as="geometry" />
        </mxCell>
        <mxCell id="6Tn6oWBFMekzkGPFEn6Q-28" style="edgeStyle=orthogonalEdgeStyle;rounded=0;orthogonalLoop=1;jettySize=auto;html=1;exitX=1;exitY=0.3333333333333333;exitDx=0;exitDy=0;exitPerimeter=0;entryX=0.004;entryY=0.121;entryDx=0;entryDy=0;entryPerimeter=0;" edge="1" parent="1" source="6Tn6oWBFMekzkGPFEn6Q-2" target="6Tn6oWBFMekzkGPFEn6Q-19">
          <mxGeometry relative="1" as="geometry" />
        </mxCell>
        <mxCell id="6Tn6oWBFMekzkGPFEn6Q-2" value="User &quot;Bob&quot;" style="shape=umlActor;verticalLabelPosition=bottom;verticalAlign=top;html=1;outlineConnect=0;" vertex="1" parent="1">
          <mxGeometry x="-245" y="160" width="30" height="60" as="geometry" />
        </mxCell>
        <mxCell id="6Tn6oWBFMekzkGPFEn6Q-6" value="" style="edgeStyle=orthogonalEdgeStyle;rounded=0;orthogonalLoop=1;jettySize=auto;html=1;" edge="1" parent="1" source="6Tn6oWBFMekzkGPFEn6Q-3" target="6Tn6oWBFMekzkGPFEn6Q-1">
          <mxGeometry relative="1" as="geometry" />
        </mxCell>
        <mxCell id="6Tn6oWBFMekzkGPFEn6Q-3" value="is OWNER of" style="text;html=1;strokeColor=none;fillColor=none;align=center;verticalAlign=middle;whiteSpace=wrap;rounded=0;" vertex="1" parent="1">
          <mxGeometry x="-280" y="260" width="100" height="30" as="geometry" />
        </mxCell>
        <mxCell id="6Tn6oWBFMekzkGPFEn6Q-15" style="edgeStyle=orthogonalEdgeStyle;rounded=0;orthogonalLoop=1;jettySize=auto;html=1;exitX=1;exitY=0.5;exitDx=0;exitDy=0;entryX=0;entryY=0.5;entryDx=0;entryDy=0;" edge="1" parent="1" source="6Tn6oWBFMekzkGPFEn6Q-7" target="6Tn6oWBFMekzkGPFEn6Q-9">
          <mxGeometry relative="1" as="geometry" />
        </mxCell>
        <mxCell id="6Tn6oWBFMekzkGPFEn6Q-16" style="edgeStyle=orthogonalEdgeStyle;rounded=0;orthogonalLoop=1;jettySize=auto;html=1;exitX=1;exitY=0.5;exitDx=0;exitDy=0;entryX=0;entryY=0.5;entryDx=0;entryDy=0;" edge="1" parent="1" source="6Tn6oWBFMekzkGPFEn6Q-7" target="6Tn6oWBFMekzkGPFEn6Q-10">
          <mxGeometry relative="1" as="geometry" />
        </mxCell>
        <mxCell id="6Tn6oWBFMekzkGPFEn6Q-7" value="Data Request 123" style="rounded=0;whiteSpace=wrap;html=1;" vertex="1" parent="1">
          <mxGeometry x="70" y="200" width="120" height="60" as="geometry" />
        </mxCell>
        <mxCell id="6Tn6oWBFMekzkGPFEn6Q-17" style="edgeStyle=orthogonalEdgeStyle;rounded=0;orthogonalLoop=1;jettySize=auto;html=1;exitX=1;exitY=0.5;exitDx=0;exitDy=0;entryX=0;entryY=0.5;entryDx=0;entryDy=0;" edge="1" parent="1" source="6Tn6oWBFMekzkGPFEn6Q-8" target="6Tn6oWBFMekzkGPFEn6Q-11">
          <mxGeometry relative="1" as="geometry" />
        </mxCell>
        <mxCell id="6Tn6oWBFMekzkGPFEn6Q-18" style="edgeStyle=orthogonalEdgeStyle;rounded=0;orthogonalLoop=1;jettySize=auto;html=1;exitX=1;exitY=0.5;exitDx=0;exitDy=0;entryX=0;entryY=0.5;entryDx=0;entryDy=0;" edge="1" parent="1" source="6Tn6oWBFMekzkGPFEn6Q-8" target="6Tn6oWBFMekzkGPFEn6Q-12">
          <mxGeometry relative="1" as="geometry" />
        </mxCell>
        <mxCell id="6Tn6oWBFMekzkGPFEn6Q-8" value="Data Request 456" style="rounded=0;whiteSpace=wrap;html=1;" vertex="1" parent="1">
          <mxGeometry x="70" y="440" width="120" height="60" as="geometry" />
        </mxCell>
        <mxCell id="6Tn6oWBFMekzkGPFEn6Q-23" style="edgeStyle=orthogonalEdgeStyle;rounded=0;orthogonalLoop=1;jettySize=auto;html=1;exitX=1;exitY=0.5;exitDx=0;exitDy=0;entryX=0;entryY=0.5;entryDx=0;entryDy=0;" edge="1" parent="1" source="6Tn6oWBFMekzkGPFEn6Q-9" target="6Tn6oWBFMekzkGPFEn6Q-20">
          <mxGeometry relative="1" as="geometry" />
        </mxCell>
        <mxCell id="6Tn6oWBFMekzkGPFEn6Q-9" value="Protocol ABC" style="rounded=0;whiteSpace=wrap;html=1;" vertex="1" parent="1">
          <mxGeometry x="340" y="140" width="120" height="60" as="geometry" />
        </mxCell>
        <mxCell id="6Tn6oWBFMekzkGPFEn6Q-24" style="edgeStyle=orthogonalEdgeStyle;rounded=0;orthogonalLoop=1;jettySize=auto;html=1;exitX=1;exitY=0.5;exitDx=0;exitDy=0;entryX=0;entryY=0.5;entryDx=0;entryDy=0;" edge="1" parent="1" source="6Tn6oWBFMekzkGPFEn6Q-10" target="6Tn6oWBFMekzkGPFEn6Q-21">
          <mxGeometry relative="1" as="geometry" />
        </mxCell>
        <mxCell id="6Tn6oWBFMekzkGPFEn6Q-10" value="Cohort 42" style="rounded=0;whiteSpace=wrap;html=1;" vertex="1" parent="1">
          <mxGeometry x="340" y="260" width="120" height="60" as="geometry" />
        </mxCell>
        <mxCell id="6Tn6oWBFMekzkGPFEn6Q-11" value="Protocol DEF" style="rounded=0;whiteSpace=wrap;html=1;" vertex="1" parent="1">
          <mxGeometry x="340" y="380" width="120" height="60" as="geometry" />
        </mxCell>
        <mxCell id="6Tn6oWBFMekzkGPFEn6Q-25" style="edgeStyle=orthogonalEdgeStyle;rounded=0;orthogonalLoop=1;jettySize=auto;html=1;exitX=1;exitY=0.5;exitDx=0;exitDy=0;entryX=0;entryY=0.5;entryDx=0;entryDy=0;" edge="1" parent="1" source="6Tn6oWBFMekzkGPFEn6Q-12" target="6Tn6oWBFMekzkGPFEn6Q-22">
          <mxGeometry relative="1" as="geometry" />
        </mxCell>
        <mxCell id="6Tn6oWBFMekzkGPFEn6Q-12" value="Cohort 668" style="rounded=0;whiteSpace=wrap;html=1;" vertex="1" parent="1">
          <mxGeometry x="340" y="500" width="120" height="60" as="geometry" />
        </mxCell>
        <mxCell id="6Tn6oWBFMekzkGPFEn6Q-27" style="edgeStyle=orthogonalEdgeStyle;rounded=0;orthogonalLoop=1;jettySize=auto;html=1;exitX=1;exitY=0.5;exitDx=0;exitDy=0;entryX=0;entryY=0.5;entryDx=0;entryDy=0;" edge="1" parent="1" source="6Tn6oWBFMekzkGPFEn6Q-20" target="6Tn6oWBFMekzkGPFEn6Q-26">
          <mxGeometry relative="1" as="geometry" />
        </mxCell>
        <mxCell id="6Tn6oWBFMekzkGPFEn6Q-20" value="Project &quot;Beta&quot;" style="rounded=0;whiteSpace=wrap;html=1;shadow=1;" vertex="1" parent="1">
          <mxGeometry x="610" y="140" width="120" height="60" as="geometry" />
        </mxCell>
        <mxCell id="6Tn6oWBFMekzkGPFEn6Q-21" value="Data Request 789" style="rounded=0;whiteSpace=wrap;html=1;shadow=1;" vertex="1" parent="1">
          <mxGeometry x="610" y="260" width="120" height="60" as="geometry" />
        </mxCell>
        <mxCell id="6Tn6oWBFMekzkGPFEn6Q-22" value="Data Request 012" style="rounded=0;whiteSpace=wrap;html=1;shadow=1;" vertex="1" parent="1">
          <mxGeometry x="610" y="500" width="120" height="60" as="geometry" />
        </mxCell>
        <mxCell id="6Tn6oWBFMekzkGPFEn6Q-26" value="Data Request 234" style="rounded=0;whiteSpace=wrap;html=1;shadow=1;" vertex="1" parent="1">
          <mxGeometry x="830" y="140" width="120" height="60" as="geometry" />
        </mxCell>
        <mxCell id="6Tn6oWBFMekzkGPFEn6Q-29" value="So &quot;Bob&quot; is also effectively OWNER of all directly related entities.&amp;nbsp; He is allowed to modify the details on any of these entities, including using Protocol or Cohorts for other Projects or Data Requests." style="text;html=1;strokeColor=none;fillColor=none;align=left;verticalAlign=top;whiteSpace=wrap;rounded=0;shadow=1;" vertex="1" parent="1">
          <mxGeometry x="10" y="90" width="240" height="90" as="geometry" />
        </mxCell>
        <mxCell id="6Tn6oWBFMekzkGPFEn6Q-32" value="But &quot;Bob&quot; cannot make changes to these entities, since they are not directly related to Project &quot;Alpha&quot; and he does not have any explicit ENTITY permissions to these things." style="text;html=1;strokeColor=none;fillColor=none;align=left;verticalAlign=top;whiteSpace=wrap;rounded=0;shadow=1;" vertex="1" parent="1">
          <mxGeometry x="570" y="340" width="200" height="150" as="geometry" />
        </mxCell>
        <mxCell id="6Tn6oWBFMekzkGPFEn6Q-33" value="And &quot;Bob&quot; couldn&#39;t even see this Data Request, since it&#39;s so far removed from the entities he does have Permission to." style="text;html=1;strokeColor=none;fillColor=none;align=left;verticalAlign=top;whiteSpace=wrap;rounded=0;shadow=1;" vertex="1" parent="1">
          <mxGeometry x="830" y="220" width="160" height="80" as="geometry" />
        </mxCell>
      </root>
    </mxGraphModel>
  </diagram>
  <diagram id="Crha1jPuFxpL6LNXwjeX" name="Page-2">
    <mxGraphModel dx="2466" dy="935" grid="1" gridSize="10" guides="1" tooltips="1" connect="1" arrows="1" fold="1" page="1" pageScale="1" pageWidth="850" pageHeight="1100" math="0" shadow="0">
      <root>
        <mxCell id="0" />
        <mxCell id="1" parent="0" />
        <mxCell id="7ZisLlWMvL8KFra5cjIe-2" value="" style="rounded=0;whiteSpace=wrap;html=1;shadow=1;fillColor=#d5e8d4;strokeColor=#82b366;" vertex="1" parent="1">
          <mxGeometry x="100" y="150" width="540" height="550" as="geometry" />
        </mxCell>
        <mxCell id="7ZisLlWMvL8KFra5cjIe-25" value="" style="rounded=0;whiteSpace=wrap;html=1;shadow=1;fontSize=19;fillColor=#e1d5e7;strokeColor=#9673a6;" vertex="1" parent="1">
          <mxGeometry x="140" y="430" width="460" height="230" as="geometry" />
        </mxCell>
        <mxCell id="7ZisLlWMvL8KFra5cjIe-7" style="edgeStyle=orthogonalEdgeStyle;rounded=0;orthogonalLoop=1;jettySize=auto;html=1;exitX=0.5;exitY=1;exitDx=0;exitDy=0;entryX=0.5;entryY=0;entryDx=0;entryDy=0;strokeColor=#009900;strokeWidth=2;" edge="1" parent="1" source="7ZisLlWMvL8KFra5cjIe-3" target="7ZisLlWMvL8KFra5cjIe-5">
          <mxGeometry relative="1" as="geometry" />
        </mxCell>
        <mxCell id="7ZisLlWMvL8KFra5cjIe-8" style="edgeStyle=orthogonalEdgeStyle;rounded=0;orthogonalLoop=1;jettySize=auto;html=1;exitX=0.5;exitY=1;exitDx=0;exitDy=0;entryX=0.5;entryY=0;entryDx=0;entryDy=0;strokeColor=#009900;strokeWidth=2;" edge="1" parent="1" source="7ZisLlWMvL8KFra5cjIe-3" target="7ZisLlWMvL8KFra5cjIe-4">
          <mxGeometry relative="1" as="geometry" />
        </mxCell>
        <mxCell id="7ZisLlWMvL8KFra5cjIe-17" style="edgeStyle=orthogonalEdgeStyle;rounded=0;orthogonalLoop=1;jettySize=auto;html=1;exitX=0;exitY=0.75;exitDx=0;exitDy=0;entryX=1;entryY=0.75;entryDx=0;entryDy=0;endArrow=cross;endFill=0;strokeColor=#3333FF;strokeWidth=2;" edge="1" parent="1" source="7ZisLlWMvL8KFra5cjIe-3" target="7ZisLlWMvL8KFra5cjIe-12">
          <mxGeometry relative="1" as="geometry" />
        </mxCell>
        <mxCell id="7ZisLlWMvL8KFra5cjIe-3" value="Data Requests" style="rounded=0;whiteSpace=wrap;html=1;shadow=1;fillColor=#f5f5f5;fontColor=#333333;strokeColor=#666666;" vertex="1" parent="1">
          <mxGeometry x="310" y="440" width="120" height="60" as="geometry" />
        </mxCell>
        <mxCell id="7ZisLlWMvL8KFra5cjIe-19" style="edgeStyle=orthogonalEdgeStyle;rounded=0;orthogonalLoop=1;jettySize=auto;html=1;exitX=0.5;exitY=1;exitDx=0;exitDy=0;entryX=0.75;entryY=1;entryDx=0;entryDy=0;endArrow=cross;endFill=0;strokeColor=#3333FF;strokeWidth=2;" edge="1" parent="1" source="7ZisLlWMvL8KFra5cjIe-4" target="7ZisLlWMvL8KFra5cjIe-13">
          <mxGeometry relative="1" as="geometry">
            <Array as="points">
              <mxPoint x="250" y="650" />
              <mxPoint x="810" y="650" />
            </Array>
          </mxGeometry>
        </mxCell>
        <mxCell id="7ZisLlWMvL8KFra5cjIe-22" style="edgeStyle=orthogonalEdgeStyle;rounded=0;orthogonalLoop=1;jettySize=auto;html=1;exitX=0;exitY=0.5;exitDx=0;exitDy=0;entryX=0.7;entryY=1.033;entryDx=0;entryDy=0;entryPerimeter=0;endArrow=cross;endFill=0;strokeColor=#3333FF;strokeWidth=2;" edge="1" parent="1" source="7ZisLlWMvL8KFra5cjIe-4" target="7ZisLlWMvL8KFra5cjIe-12">
          <mxGeometry relative="1" as="geometry" />
        </mxCell>
        <mxCell id="7ZisLlWMvL8KFra5cjIe-4" value="Cohorts" style="rounded=0;whiteSpace=wrap;html=1;shadow=1;fillColor=#f5f5f5;fontColor=#333333;strokeColor=#666666;" vertex="1" parent="1">
          <mxGeometry x="190" y="550" width="120" height="60" as="geometry" />
        </mxCell>
        <mxCell id="7ZisLlWMvL8KFra5cjIe-18" style="edgeStyle=orthogonalEdgeStyle;rounded=0;orthogonalLoop=1;jettySize=auto;html=1;exitX=1;exitY=0.5;exitDx=0;exitDy=0;entryX=0.5;entryY=1;entryDx=0;entryDy=0;endArrow=cross;endFill=0;strokeColor=#3333FF;strokeWidth=2;" edge="1" parent="1" source="7ZisLlWMvL8KFra5cjIe-5" target="7ZisLlWMvL8KFra5cjIe-13">
          <mxGeometry relative="1" as="geometry" />
        </mxCell>
        <mxCell id="7ZisLlWMvL8KFra5cjIe-23" style="edgeStyle=orthogonalEdgeStyle;rounded=0;orthogonalLoop=1;jettySize=auto;html=1;exitX=0.5;exitY=1;exitDx=0;exitDy=0;entryX=0.25;entryY=1;entryDx=0;entryDy=0;endArrow=cross;endFill=0;strokeColor=#3333FF;strokeWidth=2;" edge="1" parent="1" source="7ZisLlWMvL8KFra5cjIe-5" target="7ZisLlWMvL8KFra5cjIe-12">
          <mxGeometry relative="1" as="geometry" />
        </mxCell>
        <mxCell id="7ZisLlWMvL8KFra5cjIe-5" value="Protocols" style="rounded=0;whiteSpace=wrap;html=1;shadow=1;fillColor=#f5f5f5;fontColor=#333333;strokeColor=#666666;" vertex="1" parent="1">
          <mxGeometry x="430" y="550" width="120" height="60" as="geometry" />
        </mxCell>
        <mxCell id="7ZisLlWMvL8KFra5cjIe-14" style="edgeStyle=orthogonalEdgeStyle;rounded=0;orthogonalLoop=1;jettySize=auto;html=1;exitX=0;exitY=0.5;exitDx=0;exitDy=0;entryX=0.5;entryY=0;entryDx=0;entryDy=0;endArrow=cross;endFill=0;strokeColor=#3333FF;strokeWidth=2;" edge="1" parent="1" source="7ZisLlWMvL8KFra5cjIe-9" target="7ZisLlWMvL8KFra5cjIe-12">
          <mxGeometry relative="1" as="geometry" />
        </mxCell>
        <mxCell id="7ZisLlWMvL8KFra5cjIe-9" value="Assets" style="rounded=0;whiteSpace=wrap;html=1;shadow=1;fillColor=#f5f5f5;fontColor=#333333;strokeColor=#666666;" vertex="1" parent="1">
          <mxGeometry x="140" y="310" width="120" height="60" as="geometry" />
        </mxCell>
        <mxCell id="7ZisLlWMvL8KFra5cjIe-16" style="edgeStyle=orthogonalEdgeStyle;rounded=0;orthogonalLoop=1;jettySize=auto;html=1;exitX=0.75;exitY=1;exitDx=0;exitDy=0;entryX=0;entryY=0.5;entryDx=0;entryDy=0;endArrow=cross;endFill=0;strokeColor=#3333FF;strokeWidth=2;" edge="1" parent="1" source="7ZisLlWMvL8KFra5cjIe-10" target="7ZisLlWMvL8KFra5cjIe-13">
          <mxGeometry relative="1" as="geometry">
            <Array as="points">
              <mxPoint x="400" y="390" />
              <mxPoint x="490" y="390" />
              <mxPoint x="490" y="460" />
            </Array>
          </mxGeometry>
        </mxCell>
        <mxCell id="7ZisLlWMvL8KFra5cjIe-20" style="edgeStyle=orthogonalEdgeStyle;rounded=0;orthogonalLoop=1;jettySize=auto;html=1;exitX=0.5;exitY=1;exitDx=0;exitDy=0;entryX=1;entryY=0.25;entryDx=0;entryDy=0;endArrow=cross;endFill=0;strokeColor=#3333FF;strokeWidth=2;" edge="1" parent="1" source="7ZisLlWMvL8KFra5cjIe-10" target="7ZisLlWMvL8KFra5cjIe-12">
          <mxGeometry relative="1" as="geometry">
            <Array as="points">
              <mxPoint x="370" y="390" />
              <mxPoint x="230" y="390" />
              <mxPoint x="230" y="455" />
            </Array>
          </mxGeometry>
        </mxCell>
        <mxCell id="7ZisLlWMvL8KFra5cjIe-10" value="Cohorts" style="rounded=0;whiteSpace=wrap;html=1;shadow=1;fillColor=#f5f5f5;fontColor=#333333;strokeColor=#666666;" vertex="1" parent="1">
          <mxGeometry x="310" y="310" width="120" height="60" as="geometry" />
        </mxCell>
        <mxCell id="7ZisLlWMvL8KFra5cjIe-15" style="edgeStyle=orthogonalEdgeStyle;rounded=0;orthogonalLoop=1;jettySize=auto;html=1;exitX=1;exitY=0.5;exitDx=0;exitDy=0;endArrow=cross;endFill=0;strokeColor=#3333FF;strokeWidth=2;" edge="1" parent="1" source="7ZisLlWMvL8KFra5cjIe-11" target="7ZisLlWMvL8KFra5cjIe-13">
          <mxGeometry relative="1" as="geometry" />
        </mxCell>
        <mxCell id="7ZisLlWMvL8KFra5cjIe-21" style="edgeStyle=orthogonalEdgeStyle;rounded=0;orthogonalLoop=1;jettySize=auto;html=1;exitX=0.5;exitY=1;exitDx=0;exitDy=0;endArrow=cross;endFill=0;strokeColor=#3333FF;strokeWidth=2;" edge="1" parent="1" source="7ZisLlWMvL8KFra5cjIe-11">
          <mxGeometry relative="1" as="geometry">
            <mxPoint x="30" y="470" as="targetPoint" />
            <Array as="points">
              <mxPoint x="540" y="410" />
              <mxPoint x="250" y="410" />
              <mxPoint x="250" y="470" />
            </Array>
          </mxGeometry>
        </mxCell>
        <mxCell id="7ZisLlWMvL8KFra5cjIe-11" value="Protocols" style="rounded=0;whiteSpace=wrap;html=1;shadow=1;fillColor=#f5f5f5;fontColor=#333333;strokeColor=#666666;" vertex="1" parent="1">
          <mxGeometry x="480" y="310" width="120" height="60" as="geometry" />
        </mxCell>
        <mxCell id="7ZisLlWMvL8KFra5cjIe-28" style="edgeStyle=orthogonalEdgeStyle;rounded=0;orthogonalLoop=1;jettySize=auto;html=1;exitX=0;exitY=0.5;exitDx=0;exitDy=0;entryX=1;entryY=0.5;entryDx=0;entryDy=0;fontSize=19;endArrow=cross;endFill=0;strokeColor=#FF0000;strokeWidth=2;" edge="1" parent="1" source="7ZisLlWMvL8KFra5cjIe-12" target="7ZisLlWMvL8KFra5cjIe-27">
          <mxGeometry relative="1" as="geometry" />
        </mxCell>
        <mxCell id="7ZisLlWMvL8KFra5cjIe-12" value="Projects" style="rounded=0;whiteSpace=wrap;html=1;shadow=1;fillColor=#dae8fc;strokeColor=#6c8ebf;fontStyle=1" vertex="1" parent="1">
          <mxGeometry x="-90" y="440" width="120" height="60" as="geometry" />
        </mxCell>
        <mxCell id="7ZisLlWMvL8KFra5cjIe-30" style="edgeStyle=orthogonalEdgeStyle;rounded=0;orthogonalLoop=1;jettySize=auto;html=1;exitX=1;exitY=0.5;exitDx=0;exitDy=0;entryX=0;entryY=0.5;entryDx=0;entryDy=0;strokeColor=#FF0000;fontSize=19;endArrow=cross;endFill=0;strokeWidth=2;" edge="1" parent="1" source="7ZisLlWMvL8KFra5cjIe-13" target="7ZisLlWMvL8KFra5cjIe-29">
          <mxGeometry relative="1" as="geometry" />
        </mxCell>
        <mxCell id="7ZisLlWMvL8KFra5cjIe-13" value="Data Requests" style="rounded=0;whiteSpace=wrap;html=1;shadow=1;fillColor=#dae8fc;strokeColor=#6c8ebf;fontStyle=1" vertex="1" parent="1">
          <mxGeometry x="720" y="430" width="120" height="60" as="geometry" />
        </mxCell>
        <mxCell id="7ZisLlWMvL8KFra5cjIe-24" value="PROJECT" style="text;html=1;strokeColor=none;fillColor=none;align=center;verticalAlign=middle;whiteSpace=wrap;rounded=0;shadow=1;fontSize=19;" vertex="1" parent="1">
          <mxGeometry x="340" y="180" width="60" height="30" as="geometry" />
        </mxCell>
        <mxCell id="7ZisLlWMvL8KFra5cjIe-27" value="Assets&lt;br&gt;Cohorts&lt;br&gt;Protocols&lt;br&gt;Data Requests" style="rounded=0;whiteSpace=wrap;html=1;shadow=1;fillColor=#f8cecc;strokeColor=#b85450;fontColor=#FF0000;" vertex="1" parent="1">
          <mxGeometry x="-280" y="390" width="120" height="160" as="geometry" />
        </mxCell>
        <mxCell id="7ZisLlWMvL8KFra5cjIe-29" value="Projects&lt;br&gt;Cohorts&lt;br&gt;Protocols" style="rounded=0;whiteSpace=wrap;html=1;shadow=1;fillColor=#f8cecc;strokeColor=#b85450;fontColor=#FF0000;" vertex="1" parent="1">
          <mxGeometry x="900" y="380" width="120" height="160" as="geometry" />
        </mxCell>
        <mxCell id="TY6pEKK0ZLSKYU7pyHkP-1" value="" style="endArrow=cross;html=1;rounded=0;strokeColor=#3333FF;strokeWidth=2;fontSize=19;fontColor=#FF0000;startArrow=none;startFill=0;endFill=0;" edge="1" parent="1" target="TY6pEKK0ZLSKYU7pyHkP-2">
          <mxGeometry width="50" height="50" relative="1" as="geometry">
            <mxPoint x="-280" y="200" as="sourcePoint" />
            <mxPoint x="-120" y="200" as="targetPoint" />
          </mxGeometry>
        </mxCell>
        <mxCell id="TY6pEKK0ZLSKYU7pyHkP-2" value="&lt;font color=&quot;#3333ff&quot; style=&quot;font-size: 15px;&quot;&gt;Blue indicates User able to see Summary Data Only&lt;/font&gt;" style="text;html=1;strokeColor=none;fillColor=none;align=center;verticalAlign=middle;whiteSpace=wrap;rounded=0;shadow=1;fontSize=15;fontColor=#FF0000;" vertex="1" parent="1">
          <mxGeometry x="-170" y="180" width="220" height="40" as="geometry" />
        </mxCell>
        <mxCell id="TY6pEKK0ZLSKYU7pyHkP-3" value="" style="endArrow=cross;html=1;rounded=0;strokeColor=#FF0000;strokeWidth=2;fontSize=15;fontColor=#3333FF;endFill=0;" edge="1" parent="1" target="TY6pEKK0ZLSKYU7pyHkP-4">
          <mxGeometry width="50" height="50" relative="1" as="geometry">
            <mxPoint x="-280" y="258" as="sourcePoint" />
            <mxPoint x="-170" y="270" as="targetPoint" />
          </mxGeometry>
        </mxCell>
        <mxCell id="TY6pEKK0ZLSKYU7pyHkP-4" value="Red indicates no permissions at all, not even to View" style="text;html=1;strokeColor=none;fillColor=none;align=center;verticalAlign=middle;whiteSpace=wrap;rounded=0;shadow=1;fontSize=15;fontColor=#FF0000;" vertex="1" parent="1">
          <mxGeometry x="-170" y="240" width="210" height="35" as="geometry" />
        </mxCell>
      </root>
    </mxGraphModel>
  </diagram>
  <diagram id="c1Oo7lv5Df6xl_atcSem" name="Page-3">
    <mxGraphModel dx="3159" dy="2436" grid="1" gridSize="10" guides="1" tooltips="1" connect="1" arrows="1" fold="1" page="1" pageScale="1" pageWidth="850" pageHeight="1100" math="0" shadow="0">
      <root>
        <mxCell id="0" />
        <mxCell id="1" parent="0" />
        <mxCell id="yiyqVSNzlQx9SLA-mLN9-10" style="edgeStyle=orthogonalEdgeStyle;rounded=0;orthogonalLoop=1;jettySize=auto;html=1;exitX=0.5;exitY=1;exitDx=0;exitDy=0;entryX=0.5;entryY=0;entryDx=0;entryDy=0;strokeColor=#82b366;strokeWidth=2;fontSize=15;fontColor=#3333FF;startArrow=none;startFill=0;endArrow=none;endFill=0;fillColor=#d5e8d4;" edge="1" parent="1" source="yiyqVSNzlQx9SLA-mLN9-1" target="yiyqVSNzlQx9SLA-mLN9-2">
          <mxGeometry relative="1" as="geometry" />
        </mxCell>
        <mxCell id="yiyqVSNzlQx9SLA-mLN9-11" style="rounded=0;orthogonalLoop=1;jettySize=auto;html=1;exitX=1;exitY=0.5;exitDx=0;exitDy=0;entryX=0;entryY=0.5;entryDx=0;entryDy=0;strokeColor=#82b366;strokeWidth=2;fontSize=15;fontColor=#3333FF;startArrow=none;startFill=0;endArrow=none;endFill=0;fillColor=#d5e8d4;" edge="1" parent="1" source="yiyqVSNzlQx9SLA-mLN9-1" target="yiyqVSNzlQx9SLA-mLN9-5">
          <mxGeometry relative="1" as="geometry" />
        </mxCell>
        <mxCell id="yiyqVSNzlQx9SLA-mLN9-21" style="edgeStyle=none;rounded=0;orthogonalLoop=1;jettySize=auto;html=1;exitX=0;exitY=0.5;exitDx=0;exitDy=0;strokeColor=#82b366;strokeWidth=2;fontSize=15;fontColor=#3333FF;startArrow=none;startFill=0;endArrow=none;endFill=0;fillColor=#d5e8d4;" edge="1" parent="1" source="yiyqVSNzlQx9SLA-mLN9-1">
          <mxGeometry relative="1" as="geometry">
            <mxPoint x="180" y="60" as="targetPoint" />
          </mxGeometry>
        </mxCell>
        <mxCell id="yiyqVSNzlQx9SLA-mLN9-37" style="edgeStyle=none;rounded=0;orthogonalLoop=1;jettySize=auto;html=1;exitX=1;exitY=0;exitDx=0;exitDy=0;entryX=0.213;entryY=0.95;entryDx=0;entryDy=0;entryPerimeter=0;strokeColor=#82b366;strokeWidth=2;fontSize=17;fontColor=#3333FF;startArrow=none;startFill=0;endArrow=none;endFill=0;fillColor=#d5e8d4;" edge="1" parent="1" source="yiyqVSNzlQx9SLA-mLN9-1" target="yiyqVSNzlQx9SLA-mLN9-36">
          <mxGeometry relative="1" as="geometry" />
        </mxCell>
        <mxCell id="yiyqVSNzlQx9SLA-mLN9-1" value="PROJECT" style="ellipse;whiteSpace=wrap;html=1;aspect=fixed;shadow=1;fontSize=17;fillColor=#d5e8d4;strokeColor=#82b366;fontStyle=1;strokeWidth=4;" vertex="1" parent="1">
          <mxGeometry x="322.5" y="95" width="125" height="125" as="geometry" />
        </mxCell>
        <mxCell id="yiyqVSNzlQx9SLA-mLN9-12" style="edgeStyle=none;rounded=0;orthogonalLoop=1;jettySize=auto;html=1;exitX=1;exitY=1;exitDx=0;exitDy=0;entryX=0;entryY=0;entryDx=0;entryDy=0;strokeColor=#82b366;strokeWidth=2;fontSize=15;fontColor=#3333FF;startArrow=none;startFill=0;endArrow=none;endFill=0;fillColor=#d5e8d4;" edge="1" parent="1" source="yiyqVSNzlQx9SLA-mLN9-2" target="yiyqVSNzlQx9SLA-mLN9-4">
          <mxGeometry relative="1" as="geometry" />
        </mxCell>
        <mxCell id="yiyqVSNzlQx9SLA-mLN9-15" style="edgeStyle=none;rounded=0;orthogonalLoop=1;jettySize=auto;html=1;exitX=0;exitY=1;exitDx=0;exitDy=0;entryX=1;entryY=0;entryDx=0;entryDy=0;strokeColor=#82b366;strokeWidth=2;fontSize=15;fontColor=#3333FF;startArrow=none;startFill=0;endArrow=none;endFill=0;fillColor=#d5e8d4;" edge="1" parent="1" source="yiyqVSNzlQx9SLA-mLN9-2" target="yiyqVSNzlQx9SLA-mLN9-3">
          <mxGeometry relative="1" as="geometry" />
        </mxCell>
        <mxCell id="yiyqVSNzlQx9SLA-mLN9-2" value="Data Request" style="ellipse;whiteSpace=wrap;html=1;aspect=fixed;shadow=1;fontSize=15;fillColor=#d5e8d4;strokeColor=#82b366;" vertex="1" parent="1">
          <mxGeometry x="345" y="320" width="80" height="80" as="geometry" />
        </mxCell>
        <mxCell id="yiyqVSNzlQx9SLA-mLN9-16" style="edgeStyle=none;rounded=0;orthogonalLoop=1;jettySize=auto;html=1;exitX=0.5;exitY=1;exitDx=0;exitDy=0;entryX=0.5;entryY=0;entryDx=0;entryDy=0;strokeColor=#6c8ebf;strokeWidth=2;fontSize=15;fontColor=#3333FF;startArrow=none;startFill=0;endArrow=none;endFill=0;fillColor=#dae8fc;" edge="1" parent="1" source="yiyqVSNzlQx9SLA-mLN9-3" target="yiyqVSNzlQx9SLA-mLN9-7">
          <mxGeometry relative="1" as="geometry" />
        </mxCell>
        <mxCell id="yiyqVSNzlQx9SLA-mLN9-17" style="edgeStyle=none;rounded=0;orthogonalLoop=1;jettySize=auto;html=1;exitX=0;exitY=0.5;exitDx=0;exitDy=0;entryX=1;entryY=0;entryDx=0;entryDy=0;strokeColor=#6c8ebf;strokeWidth=2;fontSize=15;fontColor=#3333FF;startArrow=none;startFill=0;endArrow=none;endFill=0;fillColor=#dae8fc;" edge="1" parent="1" source="yiyqVSNzlQx9SLA-mLN9-3" target="yiyqVSNzlQx9SLA-mLN9-6">
          <mxGeometry relative="1" as="geometry" />
        </mxCell>
        <mxCell id="AigEBq2PumBx65JGP1BX-59" style="edgeStyle=none;rounded=0;orthogonalLoop=1;jettySize=auto;html=1;exitX=1;exitY=1;exitDx=0;exitDy=0;entryX=0.343;entryY=-0.004;entryDx=0;entryDy=0;entryPerimeter=0;strokeColor=#82b366;strokeWidth=2;fontSize=17;fontColor=#3333FF;startArrow=none;startFill=0;endArrow=none;endFill=0;fillColor=#d5e8d4;" edge="1" parent="1" source="yiyqVSNzlQx9SLA-mLN9-3" target="AigEBq2PumBx65JGP1BX-58">
          <mxGeometry relative="1" as="geometry" />
        </mxCell>
        <mxCell id="yiyqVSNzlQx9SLA-mLN9-3" value="Protocol" style="ellipse;whiteSpace=wrap;html=1;aspect=fixed;shadow=1;fontSize=15;fillColor=#d5e8d4;strokeColor=#82b366;" vertex="1" parent="1">
          <mxGeometry x="210" y="440" width="80" height="80" as="geometry" />
        </mxCell>
        <mxCell id="yiyqVSNzlQx9SLA-mLN9-13" style="edgeStyle=none;rounded=0;orthogonalLoop=1;jettySize=auto;html=1;exitX=1;exitY=0.5;exitDx=0;exitDy=0;entryX=0;entryY=0.5;entryDx=0;entryDy=0;strokeColor=#6c8ebf;strokeWidth=2;fontSize=15;fontColor=#3333FF;startArrow=none;startFill=0;endArrow=none;endFill=0;fillColor=#dae8fc;" edge="1" parent="1" source="yiyqVSNzlQx9SLA-mLN9-4" target="yiyqVSNzlQx9SLA-mLN9-9">
          <mxGeometry relative="1" as="geometry" />
        </mxCell>
        <mxCell id="yiyqVSNzlQx9SLA-mLN9-14" style="edgeStyle=none;rounded=0;orthogonalLoop=1;jettySize=auto;html=1;exitX=0.5;exitY=1;exitDx=0;exitDy=0;entryX=0.263;entryY=0.038;entryDx=0;entryDy=0;entryPerimeter=0;strokeColor=#6c8ebf;strokeWidth=2;fontSize=15;fontColor=#3333FF;startArrow=none;startFill=0;endArrow=none;endFill=0;fillColor=#dae8fc;" edge="1" parent="1" source="yiyqVSNzlQx9SLA-mLN9-4" target="yiyqVSNzlQx9SLA-mLN9-8">
          <mxGeometry relative="1" as="geometry" />
        </mxCell>
        <mxCell id="yiyqVSNzlQx9SLA-mLN9-4" value="Cohort" style="ellipse;whiteSpace=wrap;html=1;aspect=fixed;shadow=1;fontSize=15;fillColor=#d5e8d4;strokeColor=#82b366;" vertex="1" parent="1">
          <mxGeometry x="490" y="440" width="80" height="80" as="geometry" />
        </mxCell>
        <mxCell id="yiyqVSNzlQx9SLA-mLN9-25" style="edgeStyle=none;rounded=0;orthogonalLoop=1;jettySize=auto;html=1;exitX=1;exitY=0.5;exitDx=0;exitDy=0;entryX=0;entryY=0.5;entryDx=0;entryDy=0;strokeColor=#6c8ebf;strokeWidth=2;fontSize=15;fontColor=#3333FF;startArrow=none;startFill=0;endArrow=none;endFill=0;fillColor=#dae8fc;" edge="1" parent="1" source="yiyqVSNzlQx9SLA-mLN9-5" target="yiyqVSNzlQx9SLA-mLN9-24">
          <mxGeometry relative="1" as="geometry" />
        </mxCell>
        <mxCell id="yiyqVSNzlQx9SLA-mLN9-5" value="ASSET" style="ellipse;whiteSpace=wrap;html=1;aspect=fixed;shadow=1;fontSize=15;fillColor=#d5e8d4;strokeColor=#82b366;" vertex="1" parent="1">
          <mxGeometry x="580" y="140" width="80" height="80" as="geometry" />
        </mxCell>
        <mxCell id="yiyqVSNzlQx9SLA-mLN9-6" value="Cohort" style="ellipse;whiteSpace=wrap;html=1;aspect=fixed;shadow=1;fontSize=15;fillColor=#dae8fc;strokeColor=#6c8ebf;" vertex="1" parent="1">
          <mxGeometry x="20" y="530" width="80" height="80" as="geometry" />
        </mxCell>
        <mxCell id="yiyqVSNzlQx9SLA-mLN9-7" value="Data Request" style="ellipse;whiteSpace=wrap;html=1;aspect=fixed;shadow=1;fontSize=15;fillColor=#dae8fc;strokeColor=#6c8ebf;" vertex="1" parent="1">
          <mxGeometry x="190" y="630" width="80" height="80" as="geometry" />
        </mxCell>
        <mxCell id="yiyqVSNzlQx9SLA-mLN9-8" value="Protocol" style="ellipse;whiteSpace=wrap;html=1;aspect=fixed;shadow=1;fontSize=15;fillColor=#dae8fc;strokeColor=#6c8ebf;" vertex="1" parent="1">
          <mxGeometry x="570" y="630" width="80" height="80" as="geometry" />
        </mxCell>
        <mxCell id="AigEBq2PumBx65JGP1BX-3" style="edgeStyle=none;rounded=0;orthogonalLoop=1;jettySize=auto;html=1;exitX=1;exitY=0;exitDx=0;exitDy=0;entryX=0;entryY=0.6;entryDx=0;entryDy=0;entryPerimeter=0;strokeColor=#b85450;strokeWidth=2;fontSize=17;fontColor=#3333FF;startArrow=none;startFill=0;endArrow=none;endFill=0;fillColor=#f8cecc;" edge="1" parent="1" source="yiyqVSNzlQx9SLA-mLN9-9" target="AigEBq2PumBx65JGP1BX-1">
          <mxGeometry relative="1" as="geometry" />
        </mxCell>
        <mxCell id="AigEBq2PumBx65JGP1BX-4" style="edgeStyle=none;rounded=0;orthogonalLoop=1;jettySize=auto;html=1;exitX=1;exitY=1;exitDx=0;exitDy=0;strokeColor=#b85450;strokeWidth=2;fontSize=17;fontColor=#3333FF;startArrow=none;startFill=0;endArrow=none;endFill=0;fillColor=#f8cecc;" edge="1" parent="1" source="yiyqVSNzlQx9SLA-mLN9-9" target="AigEBq2PumBx65JGP1BX-2">
          <mxGeometry relative="1" as="geometry" />
        </mxCell>
        <mxCell id="yiyqVSNzlQx9SLA-mLN9-9" value="Data Request" style="ellipse;whiteSpace=wrap;html=1;aspect=fixed;shadow=1;fontSize=15;fillColor=#dae8fc;strokeColor=#6c8ebf;" vertex="1" parent="1">
          <mxGeometry x="700" y="450" width="80" height="80" as="geometry" />
        </mxCell>
        <mxCell id="yiyqVSNzlQx9SLA-mLN9-22" style="edgeStyle=none;rounded=0;orthogonalLoop=1;jettySize=auto;html=1;exitX=0.5;exitY=0;exitDx=0;exitDy=0;entryX=0.5;entryY=1;entryDx=0;entryDy=0;strokeColor=#6c8ebf;strokeWidth=2;fontSize=15;fontColor=#3333FF;startArrow=none;startFill=0;endArrow=none;endFill=0;fillColor=#dae8fc;" edge="1" parent="1" source="yiyqVSNzlQx9SLA-mLN9-18" target="yiyqVSNzlQx9SLA-mLN9-19">
          <mxGeometry relative="1" as="geometry" />
        </mxCell>
        <mxCell id="yiyqVSNzlQx9SLA-mLN9-23" style="edgeStyle=none;rounded=0;orthogonalLoop=1;jettySize=auto;html=1;exitX=0;exitY=0.5;exitDx=0;exitDy=0;strokeColor=#6c8ebf;strokeWidth=2;fontSize=15;fontColor=#3333FF;startArrow=none;startFill=0;endArrow=none;endFill=0;fillColor=#dae8fc;" edge="1" parent="1" source="yiyqVSNzlQx9SLA-mLN9-18" target="yiyqVSNzlQx9SLA-mLN9-20">
          <mxGeometry relative="1" as="geometry" />
        </mxCell>
        <mxCell id="yiyqVSNzlQx9SLA-mLN9-18" value="Protocol" style="ellipse;whiteSpace=wrap;html=1;aspect=fixed;shadow=1;fontSize=15;fillColor=#d5e8d4;strokeColor=#82b366;" vertex="1" parent="1">
          <mxGeometry x="110" width="80" height="80" as="geometry" />
        </mxCell>
        <mxCell id="yiyqVSNzlQx9SLA-mLN9-34" style="edgeStyle=none;rounded=0;orthogonalLoop=1;jettySize=auto;html=1;exitX=0;exitY=0;exitDx=0;exitDy=0;entryX=0.8;entryY=0.938;entryDx=0;entryDy=0;entryPerimeter=0;strokeColor=#b85450;strokeWidth=2;fontSize=15;fontColor=#3333FF;startArrow=none;startFill=0;endArrow=none;endFill=0;fillColor=#f8cecc;" edge="1" parent="1" source="yiyqVSNzlQx9SLA-mLN9-19" target="yiyqVSNzlQx9SLA-mLN9-27">
          <mxGeometry relative="1" as="geometry" />
        </mxCell>
        <mxCell id="yiyqVSNzlQx9SLA-mLN9-35" style="edgeStyle=none;rounded=0;orthogonalLoop=1;jettySize=auto;html=1;exitX=1;exitY=0;exitDx=0;exitDy=0;entryX=0.413;entryY=1;entryDx=0;entryDy=0;entryPerimeter=0;strokeColor=#b85450;strokeWidth=2;fontSize=15;fontColor=#3333FF;startArrow=none;startFill=0;endArrow=none;endFill=0;fillColor=#f8cecc;" edge="1" parent="1" source="yiyqVSNzlQx9SLA-mLN9-19" target="yiyqVSNzlQx9SLA-mLN9-26">
          <mxGeometry relative="1" as="geometry" />
        </mxCell>
        <mxCell id="yiyqVSNzlQx9SLA-mLN9-19" value="Data Request" style="ellipse;whiteSpace=wrap;html=1;aspect=fixed;shadow=1;fontSize=15;fillColor=#dae8fc;strokeColor=#6c8ebf;" vertex="1" parent="1">
          <mxGeometry x="70" y="-180" width="80" height="80" as="geometry" />
        </mxCell>
        <mxCell id="yiyqVSNzlQx9SLA-mLN9-31" style="edgeStyle=none;rounded=0;orthogonalLoop=1;jettySize=auto;html=1;exitX=0.5;exitY=1;exitDx=0;exitDy=0;strokeColor=#b85450;strokeWidth=2;fontSize=15;fontColor=#3333FF;startArrow=none;startFill=0;endArrow=none;endFill=0;fillColor=#f8cecc;" edge="1" parent="1" source="yiyqVSNzlQx9SLA-mLN9-20" target="yiyqVSNzlQx9SLA-mLN9-30">
          <mxGeometry relative="1" as="geometry" />
        </mxCell>
        <mxCell id="yiyqVSNzlQx9SLA-mLN9-32" style="edgeStyle=none;rounded=0;orthogonalLoop=1;jettySize=auto;html=1;exitX=0;exitY=0.5;exitDx=0;exitDy=0;entryX=1;entryY=0.5;entryDx=0;entryDy=0;strokeColor=#b85450;strokeWidth=2;fontSize=15;fontColor=#3333FF;startArrow=none;startFill=0;endArrow=none;endFill=0;fillColor=#f8cecc;" edge="1" parent="1" source="yiyqVSNzlQx9SLA-mLN9-20" target="yiyqVSNzlQx9SLA-mLN9-29">
          <mxGeometry relative="1" as="geometry" />
        </mxCell>
        <mxCell id="yiyqVSNzlQx9SLA-mLN9-33" style="edgeStyle=none;rounded=0;orthogonalLoop=1;jettySize=auto;html=1;exitX=0;exitY=0;exitDx=0;exitDy=0;entryX=0.963;entryY=0.8;entryDx=0;entryDy=0;entryPerimeter=0;strokeColor=#b85450;strokeWidth=2;fontSize=15;fontColor=#3333FF;startArrow=none;startFill=0;endArrow=none;endFill=0;fillColor=#f8cecc;" edge="1" parent="1" source="yiyqVSNzlQx9SLA-mLN9-20" target="yiyqVSNzlQx9SLA-mLN9-28">
          <mxGeometry relative="1" as="geometry" />
        </mxCell>
        <mxCell id="yiyqVSNzlQx9SLA-mLN9-20" value="Cohort" style="ellipse;whiteSpace=wrap;html=1;aspect=fixed;shadow=1;fontSize=15;fillColor=#dae8fc;strokeColor=#6c8ebf;" vertex="1" parent="1">
          <mxGeometry x="-120" y="-30" width="80" height="80" as="geometry" />
        </mxCell>
        <mxCell id="yiyqVSNzlQx9SLA-mLN9-24" value="Project" style="ellipse;whiteSpace=wrap;html=1;aspect=fixed;shadow=1;fontSize=15;fillColor=#dae8fc;strokeColor=#6c8ebf;" vertex="1" parent="1">
          <mxGeometry x="830" y="140" width="80" height="80" as="geometry" />
        </mxCell>
        <mxCell id="yiyqVSNzlQx9SLA-mLN9-26" value="Cohort" style="ellipse;whiteSpace=wrap;html=1;aspect=fixed;shadow=1;fontSize=15;fillColor=#f8cecc;strokeColor=#b85450;" vertex="1" parent="1">
          <mxGeometry x="150" y="-350" width="80" height="80" as="geometry" />
        </mxCell>
        <mxCell id="yiyqVSNzlQx9SLA-mLN9-27" value="Protocol" style="ellipse;whiteSpace=wrap;html=1;aspect=fixed;shadow=1;fontSize=15;fillColor=#f8cecc;strokeColor=#b85450;" vertex="1" parent="1">
          <mxGeometry x="-100" y="-330" width="80" height="80" as="geometry" />
        </mxCell>
        <mxCell id="yiyqVSNzlQx9SLA-mLN9-28" value="Data Request" style="ellipse;whiteSpace=wrap;html=1;aspect=fixed;shadow=1;fontSize=15;fillColor=#f8cecc;strokeColor=#b85450;" vertex="1" parent="1">
          <mxGeometry x="-280" y="-150" width="80" height="80" as="geometry" />
        </mxCell>
        <mxCell id="yiyqVSNzlQx9SLA-mLN9-29" value="Protocol" style="ellipse;whiteSpace=wrap;html=1;aspect=fixed;shadow=1;fontSize=15;fillColor=#f8cecc;strokeColor=#b85450;" vertex="1" parent="1">
          <mxGeometry x="-290" y="-20" width="80" height="80" as="geometry" />
        </mxCell>
        <mxCell id="yiyqVSNzlQx9SLA-mLN9-30" value="Project" style="ellipse;whiteSpace=wrap;html=1;aspect=fixed;shadow=1;fontSize=15;fillColor=#f8cecc;strokeColor=#b85450;" vertex="1" parent="1">
          <mxGeometry x="-190" y="117.5" width="80" height="80" as="geometry" />
        </mxCell>
        <mxCell id="yiyqVSNzlQx9SLA-mLN9-41" style="edgeStyle=none;rounded=0;orthogonalLoop=1;jettySize=auto;html=1;exitX=0.5;exitY=0;exitDx=0;exitDy=0;strokeColor=#6c8ebf;strokeWidth=2;fontSize=17;fontColor=#3333FF;startArrow=none;startFill=0;endArrow=none;endFill=0;fillColor=#dae8fc;" edge="1" parent="1" source="yiyqVSNzlQx9SLA-mLN9-36" target="yiyqVSNzlQx9SLA-mLN9-38">
          <mxGeometry relative="1" as="geometry" />
        </mxCell>
        <mxCell id="yiyqVSNzlQx9SLA-mLN9-42" style="edgeStyle=none;rounded=0;orthogonalLoop=1;jettySize=auto;html=1;exitX=1;exitY=0;exitDx=0;exitDy=0;entryX=0.225;entryY=0.975;entryDx=0;entryDy=0;entryPerimeter=0;strokeColor=#6c8ebf;strokeWidth=2;fontSize=17;fontColor=#3333FF;startArrow=none;startFill=0;endArrow=none;endFill=0;fillColor=#dae8fc;" edge="1" parent="1" source="yiyqVSNzlQx9SLA-mLN9-36" target="yiyqVSNzlQx9SLA-mLN9-39">
          <mxGeometry relative="1" as="geometry" />
        </mxCell>
        <mxCell id="yiyqVSNzlQx9SLA-mLN9-43" style="edgeStyle=none;rounded=0;orthogonalLoop=1;jettySize=auto;html=1;exitX=1;exitY=0.5;exitDx=0;exitDy=0;entryX=-0.025;entryY=0.638;entryDx=0;entryDy=0;entryPerimeter=0;strokeColor=#6c8ebf;strokeWidth=2;fontSize=17;fontColor=#3333FF;startArrow=none;startFill=0;endArrow=none;endFill=0;fillColor=#dae8fc;" edge="1" parent="1" source="yiyqVSNzlQx9SLA-mLN9-36" target="yiyqVSNzlQx9SLA-mLN9-40">
          <mxGeometry relative="1" as="geometry" />
        </mxCell>
        <mxCell id="yiyqVSNzlQx9SLA-mLN9-36" value="Cohort" style="ellipse;whiteSpace=wrap;html=1;aspect=fixed;shadow=1;strokeWidth=1;fontSize=17;fillColor=#d5e8d4;strokeColor=#82b366;" vertex="1" parent="1">
          <mxGeometry x="500" y="-90" width="80" height="80" as="geometry" />
        </mxCell>
        <mxCell id="yiyqVSNzlQx9SLA-mLN9-38" value="Data Request" style="ellipse;whiteSpace=wrap;html=1;aspect=fixed;shadow=1;strokeWidth=1;fontSize=17;fillColor=#dae8fc;strokeColor=#6c8ebf;" vertex="1" parent="1">
          <mxGeometry x="460" y="-250" width="80" height="80" as="geometry" />
        </mxCell>
        <mxCell id="yiyqVSNzlQx9SLA-mLN9-39" value="Project" style="ellipse;whiteSpace=wrap;html=1;aspect=fixed;shadow=1;strokeWidth=1;fontSize=17;fillColor=#dae8fc;strokeColor=#6c8ebf;" vertex="1" parent="1">
          <mxGeometry x="620" y="-240" width="80" height="80" as="geometry" />
        </mxCell>
        <mxCell id="yiyqVSNzlQx9SLA-mLN9-40" value="Protocol" style="ellipse;whiteSpace=wrap;html=1;aspect=fixed;shadow=1;strokeWidth=1;fontSize=17;fillColor=#dae8fc;strokeColor=#6c8ebf;" vertex="1" parent="1">
          <mxGeometry x="720" y="-110" width="80" height="80" as="geometry" />
        </mxCell>
        <mxCell id="AigEBq2PumBx65JGP1BX-1" value="Cohort" style="ellipse;whiteSpace=wrap;html=1;aspect=fixed;shadow=1;strokeWidth=1;fontSize=17;fillColor=#f8cecc;strokeColor=#b85450;" vertex="1" parent="1">
          <mxGeometry x="900" y="390" width="80" height="80" as="geometry" />
        </mxCell>
        <mxCell id="AigEBq2PumBx65JGP1BX-2" value="Protocol" style="ellipse;whiteSpace=wrap;html=1;aspect=fixed;shadow=1;strokeWidth=1;fontSize=17;fillColor=#f8cecc;strokeColor=#b85450;" vertex="1" parent="1">
          <mxGeometry x="890" y="560" width="80" height="80" as="geometry" />
        </mxCell>
        <mxCell id="AigEBq2PumBx65JGP1BX-5" style="edgeStyle=orthogonalEdgeStyle;rounded=0;orthogonalLoop=1;jettySize=auto;html=1;exitX=0.5;exitY=1;exitDx=0;exitDy=0;entryX=0.5;entryY=0;entryDx=0;entryDy=0;strokeColor=#82b366;strokeWidth=2;fontSize=15;fontColor=#3333FF;startArrow=none;startFill=0;endArrow=none;endFill=0;fillColor=#d5e8d4;" edge="1" parent="1" source="AigEBq2PumBx65JGP1BX-9" target="AigEBq2PumBx65JGP1BX-12">
          <mxGeometry relative="1" as="geometry" />
        </mxCell>
        <mxCell id="AigEBq2PumBx65JGP1BX-6" style="rounded=0;orthogonalLoop=1;jettySize=auto;html=1;exitX=1;exitY=0.5;exitDx=0;exitDy=0;entryX=0;entryY=0.5;entryDx=0;entryDy=0;strokeColor=#82b366;strokeWidth=2;fontSize=15;fontColor=#3333FF;startArrow=none;startFill=0;endArrow=none;endFill=0;fillColor=#d5e8d4;" edge="1" parent="1" source="AigEBq2PumBx65JGP1BX-9" target="AigEBq2PumBx65JGP1BX-20">
          <mxGeometry relative="1" as="geometry" />
        </mxCell>
        <mxCell id="AigEBq2PumBx65JGP1BX-7" style="edgeStyle=none;rounded=0;orthogonalLoop=1;jettySize=auto;html=1;exitX=0;exitY=0.5;exitDx=0;exitDy=0;strokeColor=#82b366;strokeWidth=2;fontSize=15;fontColor=#3333FF;startArrow=none;startFill=0;endArrow=none;endFill=0;fillColor=#d5e8d4;" edge="1" parent="1" source="AigEBq2PumBx65JGP1BX-9">
          <mxGeometry relative="1" as="geometry">
            <mxPoint x="1269.9999999999995" y="980" as="targetPoint" />
          </mxGeometry>
        </mxCell>
        <mxCell id="AigEBq2PumBx65JGP1BX-8" style="edgeStyle=none;rounded=0;orthogonalLoop=1;jettySize=auto;html=1;exitX=1;exitY=0;exitDx=0;exitDy=0;entryX=0.213;entryY=0.95;entryDx=0;entryDy=0;entryPerimeter=0;strokeColor=#82b366;strokeWidth=2;fontSize=17;fontColor=#3333FF;startArrow=none;startFill=0;endArrow=none;endFill=0;fillColor=#d5e8d4;" edge="1" parent="1" source="AigEBq2PumBx65JGP1BX-9" target="AigEBq2PumBx65JGP1BX-46">
          <mxGeometry relative="1" as="geometry" />
        </mxCell>
        <mxCell id="AigEBq2PumBx65JGP1BX-9" value="PROJECT" style="ellipse;whiteSpace=wrap;html=1;aspect=fixed;shadow=1;fontSize=17;fillColor=#d5e8d4;strokeColor=#82b366;fontStyle=1;strokeWidth=4;" vertex="1" parent="1">
          <mxGeometry x="1412.5" y="1015" width="125" height="125" as="geometry" />
        </mxCell>
        <mxCell id="AigEBq2PumBx65JGP1BX-10" style="edgeStyle=none;rounded=0;orthogonalLoop=1;jettySize=auto;html=1;exitX=1;exitY=1;exitDx=0;exitDy=0;entryX=0;entryY=0;entryDx=0;entryDy=0;strokeColor=#82b366;strokeWidth=2;fontSize=15;fontColor=#3333FF;startArrow=none;startFill=0;endArrow=none;endFill=0;fillColor=#d5e8d4;" edge="1" parent="1" source="AigEBq2PumBx65JGP1BX-12" target="AigEBq2PumBx65JGP1BX-18">
          <mxGeometry relative="1" as="geometry" />
        </mxCell>
        <mxCell id="AigEBq2PumBx65JGP1BX-11" style="edgeStyle=none;rounded=0;orthogonalLoop=1;jettySize=auto;html=1;exitX=0;exitY=1;exitDx=0;exitDy=0;entryX=1;entryY=0;entryDx=0;entryDy=0;strokeColor=#82b366;strokeWidth=2;fontSize=15;fontColor=#3333FF;startArrow=none;startFill=0;endArrow=none;endFill=0;fillColor=#d5e8d4;" edge="1" parent="1" source="AigEBq2PumBx65JGP1BX-12" target="AigEBq2PumBx65JGP1BX-15">
          <mxGeometry relative="1" as="geometry" />
        </mxCell>
        <mxCell id="AigEBq2PumBx65JGP1BX-12" value="Data Request" style="ellipse;whiteSpace=wrap;html=1;aspect=fixed;shadow=1;fontSize=15;fillColor=#d5e8d4;strokeColor=#82b366;" vertex="1" parent="1">
          <mxGeometry x="1435" y="1240" width="80" height="80" as="geometry" />
        </mxCell>
        <mxCell id="AigEBq2PumBx65JGP1BX-13" style="edgeStyle=none;rounded=0;orthogonalLoop=1;jettySize=auto;html=1;exitX=0.5;exitY=1;exitDx=0;exitDy=0;entryX=0.5;entryY=0;entryDx=0;entryDy=0;strokeColor=#6c8ebf;strokeWidth=2;fontSize=15;fontColor=#3333FF;startArrow=none;startFill=0;endArrow=none;endFill=0;fillColor=#dae8fc;" edge="1" parent="1" source="AigEBq2PumBx65JGP1BX-15" target="AigEBq2PumBx65JGP1BX-22">
          <mxGeometry relative="1" as="geometry" />
        </mxCell>
        <mxCell id="AigEBq2PumBx65JGP1BX-14" style="edgeStyle=none;rounded=0;orthogonalLoop=1;jettySize=auto;html=1;exitX=0;exitY=0.5;exitDx=0;exitDy=0;entryX=1;entryY=0;entryDx=0;entryDy=0;strokeColor=#6c8ebf;strokeWidth=2;fontSize=15;fontColor=#3333FF;startArrow=none;startFill=0;endArrow=none;endFill=0;fillColor=#dae8fc;" edge="1" parent="1" source="AigEBq2PumBx65JGP1BX-15" target="AigEBq2PumBx65JGP1BX-21">
          <mxGeometry relative="1" as="geometry" />
        </mxCell>
        <mxCell id="AigEBq2PumBx65JGP1BX-15" value="Protocol" style="ellipse;whiteSpace=wrap;html=1;aspect=fixed;shadow=1;fontSize=15;fillColor=#d5e8d4;strokeColor=#82b366;" vertex="1" parent="1">
          <mxGeometry x="1300" y="1360" width="80" height="80" as="geometry" />
        </mxCell>
        <mxCell id="AigEBq2PumBx65JGP1BX-16" style="edgeStyle=none;rounded=0;orthogonalLoop=1;jettySize=auto;html=1;exitX=1;exitY=0.5;exitDx=0;exitDy=0;entryX=0;entryY=0.5;entryDx=0;entryDy=0;strokeColor=#6c8ebf;strokeWidth=2;fontSize=15;fontColor=#3333FF;startArrow=none;startFill=0;endArrow=none;endFill=0;fillColor=#dae8fc;" edge="1" parent="1" source="AigEBq2PumBx65JGP1BX-18" target="AigEBq2PumBx65JGP1BX-26">
          <mxGeometry relative="1" as="geometry" />
        </mxCell>
        <mxCell id="AigEBq2PumBx65JGP1BX-17" style="edgeStyle=none;rounded=0;orthogonalLoop=1;jettySize=auto;html=1;exitX=0.5;exitY=1;exitDx=0;exitDy=0;entryX=0.263;entryY=0.038;entryDx=0;entryDy=0;entryPerimeter=0;strokeColor=#6c8ebf;strokeWidth=2;fontSize=15;fontColor=#3333FF;startArrow=none;startFill=0;endArrow=none;endFill=0;fillColor=#dae8fc;" edge="1" parent="1" source="AigEBq2PumBx65JGP1BX-18" target="AigEBq2PumBx65JGP1BX-23">
          <mxGeometry relative="1" as="geometry" />
        </mxCell>
        <mxCell id="AigEBq2PumBx65JGP1BX-18" value="Cohort" style="ellipse;whiteSpace=wrap;html=1;aspect=fixed;shadow=1;fontSize=15;fillColor=#d5e8d4;strokeColor=#82b366;" vertex="1" parent="1">
          <mxGeometry x="1580" y="1360" width="80" height="80" as="geometry" />
        </mxCell>
        <mxCell id="AigEBq2PumBx65JGP1BX-19" style="edgeStyle=none;rounded=0;orthogonalLoop=1;jettySize=auto;html=1;exitX=1;exitY=0.5;exitDx=0;exitDy=0;entryX=0;entryY=0.5;entryDx=0;entryDy=0;strokeColor=#6c8ebf;strokeWidth=2;fontSize=15;fontColor=#3333FF;startArrow=none;startFill=0;endArrow=none;endFill=0;fillColor=#dae8fc;" edge="1" parent="1" source="AigEBq2PumBx65JGP1BX-20" target="AigEBq2PumBx65JGP1BX-37">
          <mxGeometry relative="1" as="geometry" />
        </mxCell>
        <mxCell id="AigEBq2PumBx65JGP1BX-20" value="ASSET" style="ellipse;whiteSpace=wrap;html=1;aspect=fixed;shadow=1;fontSize=15;fillColor=#d5e8d4;strokeColor=#82b366;" vertex="1" parent="1">
          <mxGeometry x="1670" y="1060" width="80" height="80" as="geometry" />
        </mxCell>
        <mxCell id="AigEBq2PumBx65JGP1BX-21" value="Cohort" style="ellipse;whiteSpace=wrap;html=1;aspect=fixed;shadow=1;fontSize=15;fillColor=#dae8fc;strokeColor=#6c8ebf;" vertex="1" parent="1">
          <mxGeometry x="1110" y="1450" width="80" height="80" as="geometry" />
        </mxCell>
        <mxCell id="AigEBq2PumBx65JGP1BX-22" value="Data Request" style="ellipse;whiteSpace=wrap;html=1;aspect=fixed;shadow=1;fontSize=15;fillColor=#dae8fc;strokeColor=#6c8ebf;" vertex="1" parent="1">
          <mxGeometry x="1280" y="1550" width="80" height="80" as="geometry" />
        </mxCell>
        <mxCell id="AigEBq2PumBx65JGP1BX-23" value="Protocol" style="ellipse;whiteSpace=wrap;html=1;aspect=fixed;shadow=1;fontSize=15;fillColor=#dae8fc;strokeColor=#6c8ebf;" vertex="1" parent="1">
          <mxGeometry x="1660" y="1550" width="80" height="80" as="geometry" />
        </mxCell>
        <mxCell id="AigEBq2PumBx65JGP1BX-24" style="edgeStyle=none;rounded=0;orthogonalLoop=1;jettySize=auto;html=1;exitX=1;exitY=0;exitDx=0;exitDy=0;entryX=0;entryY=0.6;entryDx=0;entryDy=0;entryPerimeter=0;strokeColor=#b85450;strokeWidth=2;fontSize=17;fontColor=#3333FF;startArrow=none;startFill=0;endArrow=none;endFill=0;fillColor=#f8cecc;" edge="1" parent="1" source="AigEBq2PumBx65JGP1BX-26" target="AigEBq2PumBx65JGP1BX-50">
          <mxGeometry relative="1" as="geometry" />
        </mxCell>
        <mxCell id="AigEBq2PumBx65JGP1BX-25" style="edgeStyle=none;rounded=0;orthogonalLoop=1;jettySize=auto;html=1;exitX=1;exitY=1;exitDx=0;exitDy=0;strokeColor=#b85450;strokeWidth=2;fontSize=17;fontColor=#3333FF;startArrow=none;startFill=0;endArrow=none;endFill=0;fillColor=#f8cecc;" edge="1" parent="1" source="AigEBq2PumBx65JGP1BX-26" target="AigEBq2PumBx65JGP1BX-51">
          <mxGeometry relative="1" as="geometry" />
        </mxCell>
        <mxCell id="AigEBq2PumBx65JGP1BX-26" value="Data Request" style="ellipse;whiteSpace=wrap;html=1;aspect=fixed;shadow=1;fontSize=15;fillColor=#dae8fc;strokeColor=#6c8ebf;" vertex="1" parent="1">
          <mxGeometry x="1790" y="1370" width="80" height="80" as="geometry" />
        </mxCell>
        <mxCell id="AigEBq2PumBx65JGP1BX-27" style="edgeStyle=none;rounded=0;orthogonalLoop=1;jettySize=auto;html=1;exitX=0.5;exitY=0;exitDx=0;exitDy=0;entryX=0.5;entryY=1;entryDx=0;entryDy=0;strokeColor=#6c8ebf;strokeWidth=2;fontSize=15;fontColor=#3333FF;startArrow=none;startFill=0;endArrow=none;endFill=0;fillColor=#dae8fc;" edge="1" parent="1" source="AigEBq2PumBx65JGP1BX-29" target="AigEBq2PumBx65JGP1BX-32">
          <mxGeometry relative="1" as="geometry" />
        </mxCell>
        <mxCell id="AigEBq2PumBx65JGP1BX-28" style="edgeStyle=none;rounded=0;orthogonalLoop=1;jettySize=auto;html=1;exitX=0;exitY=0.5;exitDx=0;exitDy=0;strokeColor=#6c8ebf;strokeWidth=2;fontSize=15;fontColor=#3333FF;startArrow=none;startFill=0;endArrow=none;endFill=0;fillColor=#dae8fc;" edge="1" parent="1" source="AigEBq2PumBx65JGP1BX-29" target="AigEBq2PumBx65JGP1BX-36">
          <mxGeometry relative="1" as="geometry" />
        </mxCell>
        <mxCell id="AigEBq2PumBx65JGP1BX-29" value="Protocol" style="ellipse;whiteSpace=wrap;html=1;aspect=fixed;shadow=1;fontSize=15;fillColor=#d5e8d4;strokeColor=#82b366;" vertex="1" parent="1">
          <mxGeometry x="1200" y="920" width="80" height="80" as="geometry" />
        </mxCell>
        <mxCell id="AigEBq2PumBx65JGP1BX-30" style="edgeStyle=none;rounded=0;orthogonalLoop=1;jettySize=auto;html=1;exitX=0;exitY=0;exitDx=0;exitDy=0;entryX=1;entryY=1;entryDx=0;entryDy=0;strokeColor=#b85450;strokeWidth=2;fontSize=15;fontColor=#3333FF;startArrow=none;startFill=0;endArrow=none;endFill=0;fillColor=#f8cecc;" edge="1" parent="1" source="AigEBq2PumBx65JGP1BX-32" target="AigEBq2PumBx65JGP1BX-2">
          <mxGeometry relative="1" as="geometry">
            <mxPoint x="1054" y="665.0400000000004" as="targetPoint" />
          </mxGeometry>
        </mxCell>
        <mxCell id="AigEBq2PumBx65JGP1BX-31" style="edgeStyle=none;rounded=0;orthogonalLoop=1;jettySize=auto;html=1;exitX=1;exitY=0;exitDx=0;exitDy=0;entryX=0.413;entryY=1;entryDx=0;entryDy=0;entryPerimeter=0;strokeColor=#b85450;strokeWidth=2;fontSize=15;fontColor=#3333FF;startArrow=none;startFill=0;endArrow=none;endFill=0;fillColor=#f8cecc;" edge="1" parent="1" source="AigEBq2PumBx65JGP1BX-32" target="AigEBq2PumBx65JGP1BX-38">
          <mxGeometry relative="1" as="geometry" />
        </mxCell>
        <mxCell id="AigEBq2PumBx65JGP1BX-32" value="Data Request" style="ellipse;whiteSpace=wrap;html=1;aspect=fixed;shadow=1;fontSize=15;fillColor=#dae8fc;strokeColor=#6c8ebf;" vertex="1" parent="1">
          <mxGeometry x="1160" y="740" width="80" height="80" as="geometry" />
        </mxCell>
        <mxCell id="AigEBq2PumBx65JGP1BX-33" style="edgeStyle=none;rounded=0;orthogonalLoop=1;jettySize=auto;html=1;exitX=0.5;exitY=1;exitDx=0;exitDy=0;strokeColor=#b85450;strokeWidth=2;fontSize=15;fontColor=#3333FF;startArrow=none;startFill=0;endArrow=none;endFill=0;fillColor=#f8cecc;" edge="1" parent="1" source="AigEBq2PumBx65JGP1BX-36" target="AigEBq2PumBx65JGP1BX-42">
          <mxGeometry relative="1" as="geometry" />
        </mxCell>
        <mxCell id="AigEBq2PumBx65JGP1BX-34" style="edgeStyle=none;rounded=0;orthogonalLoop=1;jettySize=auto;html=1;exitX=0;exitY=0.5;exitDx=0;exitDy=0;entryX=1;entryY=0.5;entryDx=0;entryDy=0;strokeColor=#b85450;strokeWidth=2;fontSize=15;fontColor=#3333FF;startArrow=none;startFill=0;endArrow=none;endFill=0;fillColor=#f8cecc;" edge="1" parent="1" source="AigEBq2PumBx65JGP1BX-36" target="AigEBq2PumBx65JGP1BX-41">
          <mxGeometry relative="1" as="geometry" />
        </mxCell>
        <mxCell id="AigEBq2PumBx65JGP1BX-35" style="edgeStyle=none;rounded=0;orthogonalLoop=1;jettySize=auto;html=1;exitX=0;exitY=0;exitDx=0;exitDy=0;entryX=0.963;entryY=0.8;entryDx=0;entryDy=0;entryPerimeter=0;strokeColor=#b85450;strokeWidth=2;fontSize=15;fontColor=#3333FF;startArrow=none;startFill=0;endArrow=none;endFill=0;fillColor=#f8cecc;" edge="1" parent="1" source="AigEBq2PumBx65JGP1BX-36" target="AigEBq2PumBx65JGP1BX-40">
          <mxGeometry relative="1" as="geometry" />
        </mxCell>
        <mxCell id="AigEBq2PumBx65JGP1BX-36" value="Cohort" style="ellipse;whiteSpace=wrap;html=1;aspect=fixed;shadow=1;fontSize=15;fillColor=#dae8fc;strokeColor=#6c8ebf;" vertex="1" parent="1">
          <mxGeometry x="970" y="890" width="80" height="80" as="geometry" />
        </mxCell>
        <mxCell id="AigEBq2PumBx65JGP1BX-37" value="Project" style="ellipse;whiteSpace=wrap;html=1;aspect=fixed;shadow=1;fontSize=15;fillColor=#dae8fc;strokeColor=#6c8ebf;" vertex="1" parent="1">
          <mxGeometry x="1920" y="1060" width="80" height="80" as="geometry" />
        </mxCell>
        <mxCell id="AigEBq2PumBx65JGP1BX-38" value="Cohort" style="ellipse;whiteSpace=wrap;html=1;aspect=fixed;shadow=1;fontSize=15;fillColor=#f8cecc;strokeColor=#b85450;" vertex="1" parent="1">
          <mxGeometry x="1240" y="570" width="80" height="80" as="geometry" />
        </mxCell>
        <mxCell id="AigEBq2PumBx65JGP1BX-40" value="Data Request" style="ellipse;whiteSpace=wrap;html=1;aspect=fixed;shadow=1;fontSize=15;fillColor=#f8cecc;strokeColor=#b85450;" vertex="1" parent="1">
          <mxGeometry x="810" y="770" width="80" height="80" as="geometry" />
        </mxCell>
        <mxCell id="AigEBq2PumBx65JGP1BX-41" value="Protocol" style="ellipse;whiteSpace=wrap;html=1;aspect=fixed;shadow=1;fontSize=15;fillColor=#f8cecc;strokeColor=#b85450;" vertex="1" parent="1">
          <mxGeometry x="800" y="900" width="80" height="80" as="geometry" />
        </mxCell>
        <mxCell id="AigEBq2PumBx65JGP1BX-42" value="Project" style="ellipse;whiteSpace=wrap;html=1;aspect=fixed;shadow=1;fontSize=15;fillColor=#f8cecc;strokeColor=#b85450;" vertex="1" parent="1">
          <mxGeometry x="900" y="1037.5" width="80" height="80" as="geometry" />
        </mxCell>
        <mxCell id="AigEBq2PumBx65JGP1BX-43" style="edgeStyle=none;rounded=0;orthogonalLoop=1;jettySize=auto;html=1;exitX=0.5;exitY=0;exitDx=0;exitDy=0;strokeColor=#6c8ebf;strokeWidth=2;fontSize=17;fontColor=#3333FF;startArrow=none;startFill=0;endArrow=none;endFill=0;fillColor=#dae8fc;" edge="1" parent="1" source="AigEBq2PumBx65JGP1BX-46" target="AigEBq2PumBx65JGP1BX-47">
          <mxGeometry relative="1" as="geometry" />
        </mxCell>
        <mxCell id="AigEBq2PumBx65JGP1BX-44" style="edgeStyle=none;rounded=0;orthogonalLoop=1;jettySize=auto;html=1;exitX=1;exitY=0;exitDx=0;exitDy=0;entryX=0.225;entryY=0.975;entryDx=0;entryDy=0;entryPerimeter=0;strokeColor=#6c8ebf;strokeWidth=2;fontSize=17;fontColor=#3333FF;startArrow=none;startFill=0;endArrow=none;endFill=0;fillColor=#dae8fc;" edge="1" parent="1" source="AigEBq2PumBx65JGP1BX-46" target="AigEBq2PumBx65JGP1BX-48">
          <mxGeometry relative="1" as="geometry" />
        </mxCell>
        <mxCell id="AigEBq2PumBx65JGP1BX-45" style="edgeStyle=none;rounded=0;orthogonalLoop=1;jettySize=auto;html=1;exitX=1;exitY=0.5;exitDx=0;exitDy=0;entryX=-0.025;entryY=0.638;entryDx=0;entryDy=0;entryPerimeter=0;strokeColor=#6c8ebf;strokeWidth=2;fontSize=17;fontColor=#3333FF;startArrow=none;startFill=0;endArrow=none;endFill=0;fillColor=#dae8fc;" edge="1" parent="1" source="AigEBq2PumBx65JGP1BX-46" target="AigEBq2PumBx65JGP1BX-49">
          <mxGeometry relative="1" as="geometry" />
        </mxCell>
        <mxCell id="AigEBq2PumBx65JGP1BX-46" value="Cohort" style="ellipse;whiteSpace=wrap;html=1;aspect=fixed;shadow=1;strokeWidth=1;fontSize=17;fillColor=#d5e8d4;strokeColor=#82b366;" vertex="1" parent="1">
          <mxGeometry x="1590" y="830" width="80" height="80" as="geometry" />
        </mxCell>
        <mxCell id="AigEBq2PumBx65JGP1BX-47" value="Data Request" style="ellipse;whiteSpace=wrap;html=1;aspect=fixed;shadow=1;strokeWidth=1;fontSize=17;fillColor=#dae8fc;strokeColor=#6c8ebf;" vertex="1" parent="1">
          <mxGeometry x="1550" y="670" width="80" height="80" as="geometry" />
        </mxCell>
        <mxCell id="AigEBq2PumBx65JGP1BX-48" value="Project" style="ellipse;whiteSpace=wrap;html=1;aspect=fixed;shadow=1;strokeWidth=1;fontSize=17;fillColor=#dae8fc;strokeColor=#6c8ebf;" vertex="1" parent="1">
          <mxGeometry x="1710" y="680" width="80" height="80" as="geometry" />
        </mxCell>
        <mxCell id="AigEBq2PumBx65JGP1BX-49" value="Protocol" style="ellipse;whiteSpace=wrap;html=1;aspect=fixed;shadow=1;strokeWidth=1;fontSize=17;fillColor=#dae8fc;strokeColor=#6c8ebf;" vertex="1" parent="1">
          <mxGeometry x="1810" y="810" width="80" height="80" as="geometry" />
        </mxCell>
        <mxCell id="AigEBq2PumBx65JGP1BX-50" value="Cohort" style="ellipse;whiteSpace=wrap;html=1;aspect=fixed;shadow=1;strokeWidth=1;fontSize=17;fillColor=#f8cecc;strokeColor=#b85450;" vertex="1" parent="1">
          <mxGeometry x="1990" y="1310" width="80" height="80" as="geometry" />
        </mxCell>
        <mxCell id="AigEBq2PumBx65JGP1BX-51" value="Protocol" style="ellipse;whiteSpace=wrap;html=1;aspect=fixed;shadow=1;strokeWidth=1;fontSize=17;fillColor=#f8cecc;strokeColor=#b85450;" vertex="1" parent="1">
          <mxGeometry x="1980" y="1480" width="80" height="80" as="geometry" />
        </mxCell>
        <mxCell id="AigEBq2PumBx65JGP1BX-52" value="Green Entity Circle indicates access/permissions inherited from Project (where the role is explicitly assigned to the user).&amp;nbsp; &lt;br&gt;&lt;br&gt;Green lines indicate that the user can navigate to the related entity." style="text;html=1;strokeColor=#82b366;fillColor=#d5e8d4;align=left;verticalAlign=top;whiteSpace=wrap;rounded=0;shadow=1;strokeWidth=1;fontSize=17;" vertex="1" parent="1">
          <mxGeometry x="1000" y="-330" width="350" height="170" as="geometry" />
        </mxCell>
        <mxCell id="AigEBq2PumBx65JGP1BX-53" value="Blue Entity Circle indicates the User cannot access the entity, but Summary information can be displayed.&lt;br&gt;&lt;br&gt;Blue lines indicate that the user&amp;nbsp;can view summary info, but cannot navigate/access the entity, either through a nav link nor through a direct link." style="text;html=1;strokeColor=#6c8ebf;fillColor=#dae8fc;align=left;verticalAlign=top;whiteSpace=wrap;rounded=0;shadow=1;strokeWidth=1;fontSize=17;" vertex="1" parent="1">
          <mxGeometry x="1000" y="-115" width="350" height="195" as="geometry" />
        </mxCell>
        <mxCell id="AigEBq2PumBx65JGP1BX-54" value="Red Entity Circle indicates the User cannot access the entity, nor should Summary or Detail information be shown to the User.&lt;br&gt;&lt;br&gt;Red lines indicate that the user&amp;nbsp;cannot view any info, and cannot navigate/access the entity, either through a nav link nor through a direct link." style="text;html=1;strokeColor=#b85450;fillColor=#f8cecc;align=left;verticalAlign=top;whiteSpace=wrap;rounded=0;shadow=1;strokeWidth=1;fontSize=17;" vertex="1" parent="1">
          <mxGeometry x="1000" y="125" width="350" height="195" as="geometry" />
        </mxCell>
        <mxCell id="AigEBq2PumBx65JGP1BX-62" style="edgeStyle=none;rounded=0;orthogonalLoop=1;jettySize=auto;html=1;exitX=1;exitY=0.5;exitDx=0;exitDy=0;entryX=0.068;entryY=0.758;entryDx=0;entryDy=0;entryPerimeter=0;strokeColor=#82b366;strokeWidth=2;fontSize=17;fontColor=#3333FF;startArrow=none;startFill=0;endArrow=none;endFill=0;fillColor=#d5e8d4;" edge="1" parent="1" source="AigEBq2PumBx65JGP1BX-55" target="AigEBq2PumBx65JGP1BX-9">
          <mxGeometry relative="1" as="geometry" />
        </mxCell>
        <mxCell id="AigEBq2PumBx65JGP1BX-55" value="Asset" style="ellipse;whiteSpace=wrap;html=1;aspect=fixed;shadow=1;strokeWidth=1;fontSize=17;fillColor=#d5e8d4;strokeColor=#82b366;" vertex="1" parent="1">
          <mxGeometry x="1070" y="1180" width="80" height="80" as="geometry" />
        </mxCell>
        <mxCell id="AigEBq2PumBx65JGP1BX-61" style="edgeStyle=none;rounded=0;orthogonalLoop=1;jettySize=auto;html=1;exitX=1;exitY=0.5;exitDx=0;exitDy=0;entryX=0;entryY=0.5;entryDx=0;entryDy=0;strokeColor=#82b366;strokeWidth=2;fontSize=17;fontColor=#3333FF;startArrow=none;startFill=0;endArrow=none;endFill=0;fillColor=#d5e8d4;" edge="1" parent="1" source="AigEBq2PumBx65JGP1BX-57" target="AigEBq2PumBx65JGP1BX-55">
          <mxGeometry relative="1" as="geometry" />
        </mxCell>
        <mxCell id="AigEBq2PumBx65JGP1BX-57" value="PROJECT" style="ellipse;whiteSpace=wrap;html=1;aspect=fixed;shadow=1;fontSize=17;fillColor=#d5e8d4;strokeColor=#82b366;fontStyle=1;strokeWidth=4;" vertex="1" parent="1">
          <mxGeometry x="380" y="1110" width="125" height="125" as="geometry" />
        </mxCell>
        <mxCell id="AigEBq2PumBx65JGP1BX-60" style="edgeStyle=none;rounded=0;orthogonalLoop=1;jettySize=auto;html=1;exitX=0.5;exitY=1;exitDx=0;exitDy=0;entryX=0.5;entryY=0;entryDx=0;entryDy=0;strokeColor=#82b366;strokeWidth=2;fontSize=17;fontColor=#3333FF;startArrow=none;startFill=0;endArrow=none;endFill=0;fillColor=#d5e8d4;" edge="1" parent="1" source="AigEBq2PumBx65JGP1BX-58" target="AigEBq2PumBx65JGP1BX-57">
          <mxGeometry relative="1" as="geometry" />
        </mxCell>
        <mxCell id="AigEBq2PumBx65JGP1BX-58" value="Data Request" style="ellipse;whiteSpace=wrap;html=1;aspect=fixed;shadow=1;fontSize=15;fillColor=#d5e8d4;strokeColor=#82b366;" vertex="1" parent="1">
          <mxGeometry x="385" y="870" width="80" height="80" as="geometry" />
        </mxCell>
      </root>
    </mxGraphModel>
  </diagram>
</mxfile>
